<svg width="18" height="18" viewBox="0 0 18 18" fill="none" xmlns="http://www.w3.org/2000/svg">
<g clip-path="url(#clip0_252_2874)">
<path d="M0 8.9846C0 7.30416 0 5.62391 0 3.94383C0 1.97992 1.26619 0.438 3.18772 0.0600364C3.42525 0.0165195 3.66646 -0.00361988 3.90789 -9.42167e-05C7.30156 -9.42167e-05 10.6952 -9.42167e-05 14.0889 -9.42167e-05C16.0254 -9.42167e-05 17.5788 1.29379 17.9405 3.20132C17.9815 3.43165 18.0007 3.66533 17.9979 3.89927C17.9979 7.29951 17.9979 10.6998 17.9979 14.1C17.9952 16.2915 16.2944 17.9902 14.1018 17.9924C10.7006 17.9963 7.29977 17.9963 3.89932 17.9924C1.70666 17.9951 0.00696594 16.2958 0 14.1059C0 12.4018 0 10.6919 0 8.9846Z" fill="#8898AA"/>
<path d="M7.39494 9.00548C7.39494 7.53335 7.39494 6.06123 7.39494 4.5891C7.39494 3.93411 7.78932 3.53091 8.4393 3.53789C9.14768 3.54487 9.85606 3.50138 10.5628 3.61251C12.8048 3.96524 14.684 5.84433 15.0301 8.09439C15.4878 11.0698 13.6311 13.751 10.693 14.3609C10.0977 14.4849 9.49544 14.4618 8.89369 14.4629C8.71954 14.4629 8.5454 14.4629 8.37178 14.4629C7.81076 14.4543 7.39709 14.0446 7.39602 13.4825C7.39119 11.99 7.39494 10.4975 7.39494 9.00548Z" fill="#FEFEFE"/>
<path d="M5.78714 8.99409C5.78714 10.4872 5.79036 11.9802 5.78714 13.4733C5.78714 14.2002 5.07287 14.6748 4.43093 14.3758C4.03923 14.1949 3.85811 13.8733 3.85811 13.4427C3.85811 11.4208 3.85811 9.39854 3.85811 7.37594C3.85811 6.40955 3.85436 5.448 3.85811 4.48376C3.8614 4.25904 3.94297 4.04253 4.08873 3.8717C4.23448 3.70086 4.43524 3.58644 4.65629 3.54822C4.87733 3.51 5.10476 3.55039 5.29922 3.6624C5.49369 3.77442 5.64297 3.95101 5.72124 4.16163C5.76986 4.30089 5.79221 4.44799 5.78714 4.59543C5.78714 6.06183 5.78714 7.52805 5.78714 8.99409Z" fill="#FEFEFE"/>
<path d="M9.32406 8.97917C9.32406 7.86782 9.32728 6.75648 9.32031 5.64514C9.32031 5.49535 9.35461 5.46045 9.50464 5.46045C11.342 5.46045 12.7701 6.59917 13.1226 8.35961C13.5111 10.2994 12.0879 12.2622 10.1251 12.4995C9.91081 12.5253 9.69647 12.5253 9.48482 12.5365C9.35193 12.5435 9.32031 12.5022 9.32085 12.3723C9.32406 11.2416 9.32406 10.1104 9.32406 8.97917Z" fill="#8898AA"/>
</g>
<defs>
<clipPath id="clip0_252_2874">
<rect width="18" height="18" fill="white"/>
</clipPath>
</defs>
</svg>
