<svg width="30" height="30" viewBox="0 0 30 30" fill="none" xmlns="http://www.w3.org/2000/svg">
<g clip-path="url(#clip0_1_494)">
<path d="M27.356 20.3088C27.3545 20.9218 27.1714 21.5207 26.8299 22.0297C26.4883 22.5388 26.0037 22.9353 25.437 23.1692C24.8704 23.403 24.2471 23.4638 23.646 23.3439C23.0448 23.2239 22.4927 22.9285 22.0592 22.4951C21.6257 22.0616 21.3304 21.5094 21.2104 20.9083C21.0904 20.3071 21.1512 19.6839 21.3851 19.1173C21.619 18.5506 22.0155 18.0659 22.5245 17.7244C23.0336 17.3829 23.6324 17.1998 24.2454 17.1982C24.6541 17.1976 25.0589 17.2777 25.4365 17.4338C25.8142 17.5899 26.1573 17.819 26.4463 18.1079C26.7353 18.3969 26.9644 18.7401 27.1205 19.1177C27.2766 19.4954 27.3566 19.9002 27.356 20.3088Z" fill="white"/>
<path d="M29.8501 15.8378C29.6105 16.6932 29.4659 17.575 29.2692 18.4429C29.1408 19.0106 29.0289 19.5814 28.9052 20.1537C28.8773 20.3279 28.7989 20.4901 28.6797 20.6203C28.5615 20.6281 28.6019 20.5363 28.6019 20.4827C28.5872 20.2758 28.6229 20.0674 28.5802 19.8605C28.4013 17.7935 26.6189 16.0788 24.5302 15.9669C22.3621 15.8494 20.4141 17.327 19.9996 19.4041C19.8992 19.8404 19.8761 20.291 19.9312 20.7354C19.9545 20.8909 19.9195 20.9492 19.757 20.9329C19.6318 20.9205 19.505 20.9329 19.3783 20.9329C18.6356 20.9259 18.2375 20.4274 18.393 19.7035C18.6978 18.2824 19.0011 16.8609 19.3028 15.4388C19.6512 13.8089 20.0001 12.1789 20.3495 10.549C20.4584 10.0427 20.7928 9.74489 21.3099 9.74489C22.3582 9.74489 23.4096 9.69279 24.4555 9.77444C27.1773 9.98674 29.4325 12.1276 29.7948 14.8292C29.8018 14.8813 29.7746 14.9497 29.8524 14.9746L29.8501 15.8378Z" fill="white"/>
<path d="M0 16.6539C0.225518 16.1243 0.622118 15.94 1.1968 15.9454C3.37421 15.9672 5.54696 15.9532 7.72204 15.9548C8.18319 15.9548 8.55257 16.2223 8.67077 16.6259C8.72443 16.8143 8.7174 17.0149 8.65069 17.1991C8.58397 17.3834 8.46094 17.542 8.29906 17.6524C8.13985 17.7644 7.94933 17.8231 7.7547 17.8203C5.48812 17.8203 3.2249 17.8203 0.965061 17.8203C0.471254 17.8203 0.193634 17.5295 0 17.1205V16.6539Z" fill="white"/>
<path d="M12.4487 6H18.7414C19.6442 6 20.0167 6.45415 19.8301 7.33989C18.9187 11.5947 18.006 15.8486 17.092 20.1019C16.9707 20.6649 16.6604 20.9161 16.0966 20.9238C15.7568 20.9285 15.4162 20.9238 15.0763 20.9238C14.9395 20.9238 14.8827 20.9145 14.8998 20.7356C14.9656 20.082 14.8823 19.422 14.6562 18.8052C14.43 18.1884 14.0669 17.631 13.5942 17.1749C13.1214 16.7187 12.5513 16.3758 11.9269 16.1718C11.3024 15.9679 10.6398 15.9083 9.98897 15.9974C9.84277 16.0169 9.74401 16.0138 9.6678 15.8505C9.5249 15.5624 9.31075 15.3156 9.04568 15.1335C8.93914 15.0557 8.89015 15.0254 9.02857 14.9134C10.2728 13.8923 10.2728 12.4016 9.02857 11.3953C8.81472 11.2227 9.02157 11.204 9.09078 11.1465C9.79067 10.5687 10.0971 9.83458 9.89176 8.94884C9.68646 8.0631 9.11411 7.51952 8.23382 7.29867C8.02428 7.25677 7.81033 7.24109 7.59692 7.25201C6.78117 7.25201 5.96386 7.25201 5.14967 7.25201C4.98169 7.25201 4.89304 7.25668 4.93737 7.02338C5.08279 6.25818 5.36974 6 6.15594 6H12.4487Z" fill="white"/>
<path d="M10.5652 23.4195C9.7402 23.4195 8.94901 23.0917 8.36566 22.5084C7.78231 21.9251 7.45459 21.1339 7.45459 20.3089C7.45459 19.4839 7.78231 18.6927 8.36566 18.1094C8.94901 17.526 9.7402 17.1983 10.5652 17.1983C12.2667 17.189 13.6874 18.6051 13.6874 20.3089C13.6829 21.1345 13.3521 21.9248 12.7673 22.5075C12.1824 23.0902 11.3908 23.418 10.5652 23.4195Z" fill="white"/>
<path d="M4.96909 14.0871C4.06702 14.0871 3.16495 14.0871 2.26288 14.0871C1.67265 14.0871 1.25194 13.6982 1.24105 13.164C1.23405 12.6196 1.66176 12.223 2.27221 12.223C4.07532 12.2215 5.87972 12.2207 7.68542 12.2207C8.28032 12.2207 8.69636 12.601 8.69636 13.1422C8.70102 13.699 8.28576 14.0839 7.67297 14.0847C6.77401 14.0871 5.87194 14.0871 4.96909 14.0871Z" fill="white"/>
<path d="M5.59909 10.3546C4.89921 10.3546 4.19932 10.3546 3.49944 10.3546C2.90532 10.3546 2.49394 9.96581 2.49317 9.42146C2.49239 8.87711 2.90143 8.48828 3.49711 8.48828C4.89687 8.48828 6.29508 8.48828 7.69174 8.48828C8.28431 8.48828 8.69801 8.87711 8.70268 9.42146C8.70735 9.96581 8.28742 10.3546 7.69874 10.3546C6.99885 10.3601 6.29897 10.3546 5.59909 10.3546Z" fill="white"/>
<path d="M4.51884 19.0587C5.07252 19.0587 5.62621 19.0633 6.17989 19.0587C6.33542 19.0587 6.41319 19.0727 6.35642 19.2593C6.21022 19.7407 6.20478 20.2368 6.24366 20.7322C6.25532 20.8877 6.22422 20.9312 6.06558 20.9305C5.18139 20.9227 4.29721 20.9351 3.41302 20.9227C2.8259 20.9141 2.44407 20.474 2.50006 19.8853C2.52261 19.652 2.58949 19.4288 2.6206 19.1979C2.64237 19.033 2.75513 19.0618 2.85389 19.0618C3.41147 19.0579 3.96593 19.0587 4.51884 19.0587Z" fill="white"/>
<path d="M28.5777 19.8545C28.7107 20.094 28.5497 20.3732 28.6796 20.6135C28.6236 20.6912 28.5715 20.7045 28.5699 20.5886C28.566 20.3436 28.5738 20.0995 28.5777 19.8545Z" fill="#7E7E7E"/>
</g>
<defs>
<clipPath id="clip0_1_494">
<rect width="29.85" height="17.417" fill="white" transform="translate(0 6)"/>
</clipPath>
</defs>
</svg>
