<svg width="28" height="28" viewBox="0 0 28 28" fill="none" xmlns="http://www.w3.org/2000/svg">
<path d="M8.13808 27.0662C7.79688 26.9249 7.62381 26.66 7.50231 26.3181C6.47706 23.4599 5.44499 20.6041 4.40608 17.7507C4.18851 17.1488 4.25703 16.9114 4.76424 16.5229C6.95978 14.843 9.43153 13.8145 12.1583 13.3907C13.0646 13.2494 13.983 13.255 14.8943 13.171C17.5673 12.9265 19.9805 11.9934 22.1357 10.4018C22.2353 10.3312 22.3314 10.252 22.4303 10.1793C22.9375 9.80629 23.5069 9.9716 23.7273 10.5622C24.1201 11.614 24.5043 12.6694 24.8957 13.7227C25.5993 15.6243 26.3031 17.5255 27.0072 19.4263C27.0217 19.4553 27.0395 19.4825 27.0602 19.5075V19.9314C27.01 20.1892 26.844 20.363 26.6434 20.5156C25.1147 21.6814 23.3911 22.5664 21.5529 23.1293C20.4 23.484 19.2106 23.707 18.0074 23.794C17.2812 23.8498 16.5515 23.8647 15.8274 23.9601C14.4828 24.1444 13.1726 24.5252 11.9386 25.0903C10.8853 25.5609 9.89338 26.1585 8.98508 26.8698C8.84248 26.9703 8.67981 27.0387 8.50824 27.0704L8.13808 27.0662Z" fill="white"/>
<path d="M22.7749 7.39834C22.7142 7.73459 22.551 8.08639 22.4175 8.44737C22.3907 8.51801 22.3172 8.50883 22.26 8.52578C21.9242 8.63182 21.611 8.79951 21.3367 9.02027C19.5179 10.4251 17.3497 11.3062 15.0665 11.5683C14.3078 11.6594 13.5386 11.6637 12.7763 11.7329C10.7433 11.9159 8.81192 12.4775 6.96817 13.3464C6.8293 13.4177 6.66873 13.4343 6.51819 13.393C4.27602 12.8519 2.22882 11.9025 0.400619 10.491C-0.00910258 10.1753 -0.0896341 9.89835 0.0912086 9.40739C1.16072 6.48941 2.23236 3.57309 3.30611 0.658415C3.56254 -0.0374057 4.1086 -0.197056 4.69069 0.252932C6.32322 1.52792 8.20816 2.44125 10.2205 2.93237C11.2335 3.17891 12.2642 3.27851 13.3026 3.32655C16.6807 3.48338 19.7013 4.61082 22.3822 6.66578C22.5013 6.74779 22.599 6.85704 22.6673 6.98446C22.7357 7.11188 22.7725 7.25378 22.7749 7.39834Z" fill="white"/>
<path d="M18.0222 18.4889C18.0245 18.9589 17.8873 19.4191 17.628 19.8112C17.3687 20.2033 16.999 20.5098 16.5656 20.6918C16.1322 20.8738 15.6545 20.9232 15.193 20.8338C14.7315 20.7444 14.3069 20.5202 13.9728 20.1894C13.6387 19.8587 13.4102 19.4364 13.3162 18.9758C13.2221 18.5152 13.2667 18.0371 13.4443 17.6019C13.6219 17.1667 13.9246 16.7939 14.3141 16.5306C14.7036 16.2674 15.1623 16.1256 15.6324 16.1231C16.2627 16.1212 16.868 16.3691 17.3159 16.8124C17.7638 17.2558 18.0177 17.8586 18.0222 18.4889Z" fill="#18C7AA"/>
<path d="M19.3313 16.8568C19.333 16.6484 19.4172 16.4493 19.5655 16.3029C19.7139 16.1566 19.9141 16.0751 20.1225 16.0762C20.2264 16.0778 20.329 16.0998 20.4244 16.141C20.5197 16.1822 20.6061 16.2418 20.6784 16.3164C20.7508 16.391 20.8077 16.4791 20.846 16.5757C20.8843 16.6723 20.9033 16.7755 20.9017 16.8794C20.9001 16.9833 20.8781 17.0859 20.8369 17.1812C20.7956 17.2766 20.736 17.363 20.6615 17.4353C20.5869 17.5077 20.4988 17.5646 20.4022 17.6029C20.3056 17.6412 20.2024 17.6601 20.0985 17.6586C19.9954 17.6566 19.8936 17.6343 19.7992 17.5929C19.7047 17.5515 19.6193 17.4918 19.548 17.4173C19.4767 17.3428 19.4209 17.2549 19.3837 17.1587C19.3465 17.0625 19.3287 16.9599 19.3313 16.8568Z" fill="#18C7AA"/>
<path d="M11.1783 19.337C11.2814 19.3359 11.3838 19.3553 11.4793 19.3941C11.5748 19.4329 11.6617 19.4904 11.7348 19.5631C11.8079 19.6358 11.8658 19.7223 11.9051 19.8177C11.9445 19.913 11.9644 20.0152 11.9639 20.1183C11.967 20.2237 11.949 20.3286 11.9109 20.4269C11.8727 20.5252 11.8152 20.6148 11.7418 20.6904C11.6684 20.7661 11.5805 20.8262 11.4834 20.8673C11.3863 20.9084 11.282 20.9295 11.1766 20.9295C11.0711 20.9295 10.9668 20.9084 10.8697 20.8673C10.7726 20.8262 10.6848 20.7661 10.6113 20.6904C10.5379 20.6148 10.4804 20.5252 10.4423 20.4269C10.4041 20.3286 10.3861 20.2237 10.3893 20.1183C10.3887 20.0149 10.4088 19.9124 10.4483 19.8168C10.4879 19.7213 10.5461 19.6346 10.6196 19.5618C10.6931 19.489 10.7803 19.4317 10.8763 19.3931C10.9722 19.3545 11.0749 19.3354 11.1783 19.337Z" fill="#18C7AA"/>
<path d="M11.3868 10.9499C10.917 10.9449 10.4593 10.8007 10.0715 10.5357C9.68365 10.2706 9.38306 9.89659 9.20769 9.4608C9.03232 9.025 8.99005 8.54701 9.08621 8.0872C9.18237 7.62739 9.41265 7.2064 9.74796 6.87741C10.0833 6.54841 10.5086 6.32617 10.9701 6.23877C11.4317 6.15136 11.9088 6.20271 12.3411 6.38632C12.7735 6.56994 13.1418 6.87758 13.3994 7.27039C13.657 7.66321 13.7925 8.12356 13.7886 8.5933C13.7868 8.90609 13.7232 9.21545 13.6013 9.50354C13.4794 9.79162 13.3017 10.0527 13.0785 10.2718C12.8552 10.4909 12.5907 10.6636 12.3004 10.78C12.01 10.8963 11.6995 10.9541 11.3868 10.9499Z" fill="#18C7AA"/>
<path d="M15.8945 9.4113C16.0515 9.4132 16.2045 9.46179 16.3338 9.5509C16.4631 9.64001 16.563 9.7656 16.6208 9.91167C16.6785 10.0577 16.6914 10.2177 16.6579 10.3712C16.6244 10.5246 16.546 10.6646 16.4327 10.7734C16.3193 10.8821 16.1762 10.9546 16.0215 10.9817C15.8668 11.0089 15.7075 10.9893 15.5639 10.9256C15.4204 10.8619 15.299 10.7568 15.2154 10.6239C15.1317 10.491 15.0895 10.3362 15.0941 10.1792C15.0962 10.0762 15.1186 9.97465 15.16 9.88032C15.2013 9.78599 15.2609 9.70074 15.3352 9.62943C15.4095 9.55812 15.4972 9.50216 15.5931 9.46473C15.6891 9.4273 15.7915 9.40915 15.8945 9.4113Z" fill="#18C7AA"/>
<path d="M7.72555 6.94946C7.72678 7.05249 7.70739 7.15473 7.66853 7.25017C7.62966 7.3456 7.57211 7.4323 7.49925 7.50516C7.42638 7.57802 7.33969 7.63558 7.24425 7.67444C7.14882 7.71331 7.04658 7.73269 6.94354 7.73146C6.73516 7.73354 6.53441 7.65319 6.38502 7.5079C6.23563 7.36261 6.14971 7.16417 6.146 6.95581C6.146 6.85025 6.16682 6.74572 6.20728 6.64822C6.24775 6.55072 6.30705 6.46216 6.38179 6.38762C6.45653 6.31307 6.54525 6.254 6.64285 6.2138C6.74046 6.1736 6.84504 6.15304 6.95061 6.15332C7.15889 6.1563 7.35748 6.24181 7.50277 6.39108C7.64807 6.54034 7.72819 6.74117 7.72555 6.94946Z" fill="#18C7AA"/>
<path d="M15.6473 17.7061C15.7506 17.7056 15.8529 17.7255 15.9485 17.7646C16.0441 17.8038 16.131 17.8614 16.2043 17.9341C16.2776 18.0069 16.3358 18.0934 16.3756 18.1887C16.4154 18.284 16.4361 18.3862 16.4364 18.4895C16.4366 18.698 16.3556 18.8983 16.2105 19.0481C16.0654 19.1978 15.8677 19.285 15.6593 19.2913C15.4463 19.2903 15.2422 19.2055 15.0914 19.0552C14.9405 18.9048 14.8549 18.7011 14.8533 18.4881C14.8562 18.2795 14.9412 18.0805 15.0898 17.9342C15.2384 17.7878 15.4387 17.7059 15.6473 17.7061Z" fill="white"/>
<path d="M11.3945 9.36299C11.1861 9.35909 10.9877 9.27273 10.8429 9.12284C10.698 8.97295 10.6185 8.77175 10.6217 8.56333C10.6235 8.40665 10.6719 8.25405 10.7607 8.12492C10.8494 7.9958 10.9746 7.89596 11.1202 7.8381C11.2658 7.78024 11.4253 7.76696 11.5785 7.79994C11.7317 7.83293 11.8716 7.9107 11.9805 8.02337C12.0894 8.13605 12.1624 8.27854 12.1901 8.43276C12.2178 8.58698 12.1991 8.74596 12.1363 8.88952C12.0735 9.03307 11.9695 9.15473 11.8374 9.23903C11.7053 9.32333 11.5511 9.36648 11.3945 9.36299Z" fill="white"/>
</svg>
