<svg width="28" height="25" viewBox="0 0 28 25" fill="none" xmlns="http://www.w3.org/2000/svg">
<path d="M27.846 2.44487C27.7712 2.46617 27.7933 2.53153 27.7912 2.58147C27.7356 3.77764 27.6809 4.97405 27.6272 6.1707C27.6094 6.57464 27.5161 6.93746 27.1654 7.18276C26.8347 7.41485 26.4948 7.42366 26.2011 7.14678C25.7693 6.73891 25.3507 6.3171 24.9454 5.88133C24.7964 5.72122 24.7273 5.75207 24.5933 5.89088C21.2836 9.30898 17.9712 12.7244 14.6563 16.1371C14.389 16.4125 14.1225 16.6901 13.8538 16.9641C13.1653 17.6655 12.3607 17.6611 11.6687 16.9494C10.3036 15.5451 8.9412 14.1389 7.58138 12.7308C7.43457 12.5773 7.35902 12.5721 7.20865 12.7308C5.79395 14.1989 4.36572 15.6575 2.95103 17.1264C2.51914 17.5759 2.02881 17.8337 1.42516 17.6214C0.793717 17.4011 0.356125 16.9391 0.19078 16.2598C0.0895782 15.8507 0.202183 15.4688 0.438797 15.1309C0.521717 15.0208 0.612735 14.9174 0.711045 14.8217C2.55881 12.918 4.4073 11.0148 6.25649 9.11215C7.01337 8.3329 7.77666 8.33364 8.5371 9.11215C9.88789 10.5032 11.2377 11.8959 12.5866 13.2904C12.7291 13.4373 12.8004 13.4512 12.9551 13.2941C16.0767 10.0625 19.2039 6.83733 22.3369 3.61851C22.5087 3.44224 22.503 3.35778 22.3319 3.194C21.9628 2.84073 21.615 2.46323 21.2629 2.09234C20.9999 1.81618 20.8531 1.50992 21.0106 1.11332C21.1631 0.729942 21.4539 0.569834 21.8345 0.550738C23.4886 0.46848 25.1442 0.381082 26.7998 0.307637C27.3806 0.281932 27.6871 0.507406 27.7976 0.983325C27.8517 1.07293 27.7812 1.18456 27.846 1.2727V1.66269C27.809 1.69794 27.8211 1.74494 27.8182 1.78828V2.09454C27.8182 2.13787 27.809 2.18414 27.846 2.22013V2.44487Z" fill="white"/>
<path d="M27.846 1.27472C27.7655 1.18953 27.7883 1.08597 27.7975 0.985352C27.8129 0.992061 27.8293 0.995556 27.846 0.995634V1.27472Z" fill="white"/>
<path d="M27.8003 1.77692C27.7918 1.72919 27.7946 1.68585 27.846 1.66309V1.77692C27.8324 1.80043 27.8167 1.80116 27.8003 1.77692Z" fill="#535353"/>
<path d="M27.8005 1.77637H27.8461V1.88727C27.8319 1.91126 27.8169 1.91126 27.8012 1.88727C27.8012 1.84981 27.8005 1.81529 27.8005 1.77637Z" fill="#6C6C6C"/>
<path d="M27.801 1.88965C27.8158 1.88965 27.8307 1.88965 27.8459 1.88965V1.99688C27.8317 2.02185 27.8167 2.02111 27.801 1.99688V1.88965Z" fill="#838383"/>
<path d="M27.801 2.00098C27.816 2.00208 27.831 2.00208 27.8459 2.00098V2.11261C27.8317 2.13611 27.8167 2.13758 27.801 2.11261V2.00098Z" fill="#9B9B9B"/>
<path d="M27.8011 2.1123H27.846V2.22394C27.7755 2.20999 27.7933 2.15857 27.8011 2.1123Z" fill="#B3B3B3"/>
<path d="M25.1044 16.2933V23.7846C25.1044 24.3854 24.9618 24.5316 24.3682 24.5323C23.35 24.5323 22.3315 24.5323 21.3129 24.5323C20.7983 24.5323 20.6415 24.3678 20.6415 23.8316C20.6415 20.0977 20.6401 16.3643 20.6372 12.6314C20.6348 12.5499 20.6497 12.4688 20.681 12.394C20.7123 12.3191 20.7591 12.2522 20.8182 12.198C22.0778 10.9079 23.3348 9.61575 24.5891 8.32166C24.6504 8.25849 24.7067 8.10573 24.8079 8.17477C24.9255 8.25849 25.0744 8.34148 25.1015 8.51481C25.1071 8.58814 25.1071 8.66182 25.1015 8.73515L25.1044 16.2933Z" fill="white"/>
<path d="M18.9124 14.2494V14.5182C18.9124 17.599 18.9124 20.6797 18.9124 23.7604C18.9124 24.3803 18.7635 24.5353 18.1684 24.536C17.1507 24.536 16.1329 24.536 15.1152 24.536C14.6007 24.536 14.436 24.3649 14.436 23.8383C14.436 22.1951 14.436 20.5526 14.436 18.9109C14.436 18.764 14.4638 18.6583 14.5935 18.565C14.7682 18.4334 14.9312 18.2859 15.0803 18.1243C16.2795 16.8934 17.4766 15.6598 18.6715 14.4235C18.7311 14.3538 18.7861 14.2802 18.8362 14.2031L18.9124 14.2494Z" fill="white"/>
<path d="M8.25552 15.8916C8.35957 15.9085 8.39805 15.9988 8.46148 16.0605C9.14567 16.7612 9.83127 17.456 10.5069 18.1684C11.0642 18.7559 11.7185 19.1232 12.5203 19.176C12.6742 19.1863 12.7098 19.2495 12.7091 19.3964C12.7041 20.9101 12.7091 22.4238 12.7041 23.9374C12.7041 24.3282 12.5217 24.5287 12.1447 24.5309C11.0272 24.5392 9.91062 24.5392 8.79502 24.5309C8.42442 24.5309 8.24625 24.3296 8.23627 23.9323C8.2263 23.5519 8.23627 23.1707 8.23627 22.7902C8.23627 20.5805 8.23627 18.3704 8.23627 16.1597C8.23342 16.0737 8.20705 15.9797 8.25552 15.8916Z" fill="white"/>
<path d="M6.50386 15.8818V23.7756C6.50386 24.386 6.36133 24.5351 5.77906 24.5351C4.76039 24.5351 3.74219 24.5351 2.72447 24.5351C2.19351 24.5351 2.04028 24.3742 2.04028 23.8197C2.04028 22.4368 2.04028 21.0531 2.04028 19.6701C2.04028 19.4777 2.06451 19.3763 2.28331 19.3499C3.00455 19.264 3.59537 18.8887 4.10352 18.3606L6.50386 15.8818Z" fill="white"/>
</svg>
