<svg width="18" height="23" viewBox="0 0 18 23" fill="none" xmlns="http://www.w3.org/2000/svg">
<path d="M15.8849 22.6818H1.13365C0.406743 22.5075 0.0343503 22.0458 9.01554e-05 21.2853C9.01554e-05 21.2042 9.01554e-05 21.123 9.01554e-05 21.0418C9.01554e-05 15.6967 9.01554e-05 10.3517 9.01554e-05 5.00658C-0.00562199 4.80666 0.0116208 4.60675 0.0514803 4.41076C0.1915 3.80971 0.647308 3.40828 1.25729 3.39115C2.05421 3.36806 2.85187 3.37997 3.64879 3.39115C3.88861 3.39115 3.94149 3.45445 3.94671 3.70395C3.95564 4.06592 3.94671 4.42714 3.94671 4.78911C3.94193 4.89985 3.95144 5.01074 3.97501 5.11905C4.03236 5.33429 4.12396 5.41175 4.3474 5.42366C4.40698 5.42366 4.46582 5.42366 4.52466 5.42366H12.5028C12.9988 5.42366 13.1083 5.31344 13.112 4.80922C13.112 4.4547 13.112 4.10018 13.112 3.74566C13.1165 3.43881 13.1657 3.38891 13.4792 3.38742C14.2021 3.38295 14.9256 3.38295 15.6495 3.38742C16.4732 3.38742 16.9901 3.87674 17.0542 4.69899C17.0616 4.78762 17.0601 4.87625 17.0601 4.96488C17.0601 10.3392 17.0601 15.7139 17.0601 21.0887C17.0601 21.4566 17.008 21.8082 16.8084 22.1277C16.7128 22.2897 16.5782 22.4252 16.417 22.522C16.2557 22.6187 16.0728 22.6737 15.8849 22.6818V22.6818Z" fill="white"/>
<path d="M11.3015 19.1851C10.1948 19.1851 9.08854 19.1851 7.98279 19.1851C7.70572 19.1851 7.51953 19.0094 7.51357 18.7614C7.50761 18.5133 7.68934 18.3353 7.96044 18.3145C8.01928 18.31 8.07886 18.3145 8.1377 18.3145H14.5317C14.8728 18.319 15.0813 18.4873 15.0798 18.7561C15.0784 19.025 14.875 19.1889 14.5287 19.1889C13.4537 19.1874 12.378 19.1861 11.3015 19.1851Z" fill="#0FABD9"/>
<path d="M11.285 9.87332C10.2081 9.87332 9.13137 9.87332 8.0549 9.87332C7.89403 9.87332 7.74433 9.85172 7.63112 9.72437C7.57592 9.66928 7.53772 9.59947 7.52108 9.52328C7.50444 9.44709 7.51007 9.36771 7.53728 9.29463C7.56195 9.21654 7.6083 9.14708 7.67094 9.09434C7.73357 9.04159 7.80991 9.00773 7.89105 8.99671C7.94219 8.99049 7.99378 8.98875 8.04522 8.9915C10.214 8.9915 12.3824 8.9915 14.5502 8.9915C14.9546 8.9915 15.1937 9.29984 15.0365 9.61637C14.9397 9.81076 14.7677 9.87034 14.5599 9.8696C13.468 9.87183 12.3761 9.87332 11.285 9.87332Z" fill="#0FABD9"/>
<path d="M11.2761 14.5302C10.1999 14.5302 9.12292 14.5302 8.04596 14.5302C7.86721 14.5302 7.70932 14.4981 7.59909 14.3447C7.55961 14.2912 7.53309 14.2292 7.5216 14.1636C7.51011 14.0981 7.51398 14.0308 7.53288 13.967C7.55179 13.9032 7.58523 13.8446 7.63057 13.7959C7.67592 13.7472 7.73193 13.7097 7.79422 13.6863C7.89284 13.6552 7.99645 13.6431 8.09958 13.6506H14.4943C14.5308 13.6506 14.5688 13.6506 14.6045 13.6506C14.889 13.6625 15.0872 13.8457 15.0842 14.0974C15.0812 14.3492 14.8823 14.5287 14.5963 14.5302C13.7629 14.5302 12.9295 14.5302 12.0961 14.5302H11.2761Z" fill="#0FABD9"/>
<path d="M2.4668 17.6698C2.58373 17.6661 2.69023 17.7384 2.78407 17.8389C3.0157 18.0877 3.25403 18.3297 3.47747 18.5837C3.57727 18.6976 3.63685 18.7043 3.75081 18.5941C4.32578 18.0422 4.90895 17.4993 5.49062 16.9556C5.71853 16.7418 5.9725 16.7321 6.15199 16.9161C6.33149 17.1001 6.31063 17.3697 6.07751 17.5916C5.35259 18.2679 4.62965 18.9434 3.9087 19.6182C3.69644 19.8163 3.4946 19.823 3.28755 19.6182C2.89058 19.2227 2.5018 18.819 2.11302 18.4146C2.04708 18.3536 2.00331 18.2725 1.98861 18.1839C1.97391 18.0953 1.98912 18.0043 2.03184 17.9253C2.06916 17.8431 2.13098 17.7744 2.20884 17.7286C2.28671 17.6829 2.3768 17.6624 2.4668 17.6698Z" fill="#0FABD9"/>
<path d="M2.45782 13.0127C2.52096 13.0155 2.58269 13.0322 2.63867 13.0616C2.69465 13.0909 2.74351 13.1322 2.7818 13.1825C2.99779 13.4148 3.22867 13.6375 3.42902 13.8803C3.5601 14.0382 3.6383 14.0568 3.80141 13.9004C4.35404 13.3568 4.92455 12.8324 5.48909 12.3021C5.71253 12.0899 5.97171 12.0742 6.1527 12.2589C6.33368 12.4436 6.3158 12.7133 6.07822 12.9345C5.35727 13.6112 4.63532 14.287 3.91238 14.9618C3.6964 15.1636 3.50052 15.171 3.29198 14.9618C2.89426 14.5663 2.50549 14.1626 2.11596 13.7589C2.05013 13.6978 2.00623 13.6167 1.99102 13.5281C1.97581 13.4396 1.99014 13.3485 2.0318 13.2689C2.06769 13.1874 2.1279 13.1191 2.20418 13.0732C2.28045 13.0273 2.36905 13.0062 2.45782 13.0127V13.0127Z" fill="#0FABD9"/>
<path d="M3.61454 10.4541C3.48538 10.4436 3.36492 10.3848 3.27715 10.2895C2.89508 9.89922 2.51002 9.51119 2.13242 9.11646C1.9343 8.90866 1.94175 8.6465 2.13614 8.46849C2.33053 8.29049 2.57631 8.30985 2.76846 8.50648C3.01052 8.75449 3.25332 9.00325 3.4775 9.26765C3.59294 9.4032 3.65327 9.37638 3.76573 9.26765C4.34592 8.71055 4.93281 8.16015 5.52044 7.6105C5.75207 7.39377 6.07605 7.42803 6.21831 7.68498C6.27164 7.76692 6.29348 7.86541 6.27979 7.96222C6.2661 8.05903 6.2178 8.1476 6.14383 8.21154C5.38713 8.92604 4.62794 9.6378 3.86628 10.3468C3.79704 10.4102 3.70822 10.4481 3.61454 10.4541V10.4541Z" fill="#0FABD9"/>
<path d="M8.50854 4.63205C7.32806 4.63205 6.14757 4.63205 4.96709 4.63578C4.79653 4.63578 4.74365 4.59779 4.74365 4.4183C4.75408 3.58513 4.75408 2.75147 4.74365 1.91731C4.74365 1.74005 4.801 1.71473 4.95592 1.71845C5.39832 1.72814 5.84072 1.72367 6.28387 1.71845C6.58849 1.71845 6.73074 1.60599 6.80522 1.31478C6.89586 0.93554 7.11318 0.598574 7.42126 0.359561C7.72933 0.120547 8.10973 -0.00621025 8.4996 0.000234135C9.33823 0.000234135 9.98024 0.485834 10.2037 1.29765C10.2893 1.60971 10.4316 1.71994 10.7578 1.72143C11.2225 1.72143 11.6873 1.7259 12.152 1.72143C12.2719 1.72143 12.3166 1.74675 12.3159 1.87709C12.3099 2.7403 12.3077 3.6035 12.3159 4.46671C12.3159 4.63875 12.2347 4.63578 12.114 4.63578C10.9125 4.6323 9.71062 4.63106 8.50854 4.63205Z" fill="white"/>
</svg>
